<?xml version="1.0" encoding="UTF-8" standalone="no"?>
<!-- Created with Inkscape (http://www.inkscape.org/) -->

<svg
   xmlns:dc="http://purl.org/dc/elements/1.1/"
   xmlns:cc="http://creativecommons.org/ns#"
   xmlns:rdf="http://www.w3.org/1999/02/22-rdf-syntax-ns#"
   xmlns:svg="http://www.w3.org/2000/svg"
   xmlns="http://www.w3.org/2000/svg"
   xmlns:sodipodi="http://sodipodi.sourceforge.net/DTD/sodipodi-0.dtd"
   xmlns:inkscape="http://www.inkscape.org/namespaces/inkscape"
   width="72.634941"
   height="72.636223"
   id="svg4531"
   version="1.1"
   inkscape:version="0.48.4 r9939"
   sodipodi:docname="wheel.svg">
  <defs
     id="defs4533" />
  <sodipodi:namedview
     id="base"
     pagecolor="#ffffff"
     bordercolor="#666666"
     borderopacity="1.0"
     inkscape:pageopacity="0.0"
     inkscape:pageshadow="2"
     inkscape:zoom="3.959798"
     inkscape:cx="-0.76666017"
     inkscape:cy="72.154669"
     inkscape:document-units="px"
     inkscape:current-layer="layer1"
     showgrid="false"
     fit-margin-top="0"
     fit-margin-left="0"
     fit-margin-right="0"
     fit-margin-bottom="0"
     inkscape:window-width="1855"
     inkscape:window-height="1056"
     inkscape:window-x="65"
     inkscape:window-y="24"
     inkscape:window-maximized="1" />
  <metadata
     id="metadata4536">
    <rdf:RDF>
      <cc:Work
         rdf:about="">
        <dc:format>image/svg+xml</dc:format>
        <dc:type
           rdf:resource="http://purl.org/dc/dcmitype/StillImage" />
        <dc:title></dc:title>
      </cc:Work>
    </rdf:RDF>
  </metadata>
  <g
     inkscape:label="Layer 1"
     inkscape:groupmode="layer"
     id="layer1"
     transform="translate(-346.53967,-433.18693)">
    <g
       id="g296"
       transform="translate(53.882078,328.36375)"
       style="fill:#d8d8be;fill-opacity:1"
       inkscape:export-filename="/home/michael/Documents/forensics/server/html/img/wheel.png"
       inkscape:export-xdpi="90"
       inkscape:export-ydpi="90">
      <g
         id="g298"
         style="fill:#d8d8be;fill-opacity:1">
        <path
           d="m 358.786,153.132 c -6.623,16.464 -25.339,24.441 -41.802,17.819 -16.464,-6.623 -24.442,-25.338 -17.819,-41.802 6.623,-16.463 25.338,-24.441 41.802,-17.818 16.463,6.622 24.441,25.337 17.819,41.801 z m -23.517,-27.636 c -8.64,-3.476 -18.462,0.711 -21.938,9.351 -3.476,8.641 0.711,18.462 9.352,21.938 8.641,3.476 18.462,-0.711 21.938,-9.352 3.474,-8.64 -0.712,-18.461 -9.352,-21.937 z"
           id="path300"
           inkscape:connector-curvature="0"
           style="fill:#d8d8be;fill-opacity:1" />
        <path
           d="m 346.682,113.001 c 0.39,-0.971 0.968,-2.409 0.968,-2.409 0.443,-1.101 -0.09,-2.352 -1.19,-2.794 l -7.01,-2.819 c -1.1,-0.443 -2.352,0.091 -2.794,1.191 0,0 -0.579,1.438 -0.969,2.409 -0.391,0.971 -2.721,0.671 -2.721,0.671 l -1.559,3.875 c -0.443,1.101 0.09,2.352 1.19,2.794 l 5.614,2.258 5.613,2.258 c 1.101,0.443 2.352,-0.091 2.795,-1.191 l 1.558,-3.875 c 0.002,0 -1.886,-1.397 -1.495,-2.368 z"
           id="path302"
           inkscape:connector-curvature="0"
           style="fill:#d8d8be;fill-opacity:1" />
        <path
           d="m 321.597,108.723 c -0.411,-0.962 -1.018,-2.388 -1.018,-2.388 -0.466,-1.091 -1.727,-1.599 -2.818,-1.134 l -6.951,2.962 c -1.09,0.465 -1.598,1.728 -1.134,2.818 0,0 0.609,1.425 1.018,2.388 0.411,0.962 -1.448,2.398 -1.448,2.398 l 1.638,3.843 c 0.465,1.091 1.727,1.598 2.817,1.133 l 5.566,-2.372 5.566,-2.374 c 1.092,-0.465 1.599,-1.727 1.134,-2.817 l -1.638,-3.842 c 0.002,0 -2.321,0.348 -2.732,-0.615 z"
           id="path304"
           inkscape:connector-curvature="0"
           style="fill:#d8d8be;fill-opacity:1" />
        <path
           d="m 300.835,123.435 c -0.971,-0.391 -2.409,-0.97 -2.409,-0.97 -1.1,-0.442 -2.352,0.091 -2.794,1.191 l -2.819,7.009 c -0.442,1.101 0.091,2.352 1.191,2.794 0,0 1.439,0.579 2.409,0.969 0.972,0.391 0.671,2.72 0.671,2.72 l 3.875,1.559 c 1.101,0.442 2.353,-0.091 2.795,-1.191 l 2.258,-5.613 2.258,-5.615 c 0.443,-1.1 -0.09,-2.352 -1.191,-2.794 l -3.874,-1.558 c -10e-4,0.002 -1.399,1.889 -2.37,1.499 z"
           id="path306"
           inkscape:connector-curvature="0"
           style="fill:#d8d8be;fill-opacity:1" />
        <path
           d="m 296.558,148.519 c -0.963,0.41 -2.388,1.018 -2.388,1.018 -1.091,0.465 -1.599,1.727 -1.134,2.818 l 2.962,6.949 c 0.465,1.091 1.728,1.599 2.818,1.134 0,0 1.426,-0.607 2.389,-1.018 0.963,-0.411 2.398,1.449 2.398,1.449 l 3.842,-1.638 c 1.091,-0.465 1.599,-1.727 1.134,-2.818 l -2.373,-5.566 -2.374,-5.566 c -0.465,-1.092 -1.727,-1.599 -2.817,-1.134 l -3.842,1.638 c 0,0 0.347,2.323 -0.615,2.734 z"
           id="path308"
           inkscape:connector-curvature="0"
           style="fill:#d8d8be;fill-opacity:1" />
        <path
           d="m 311.27,169.281 c -0.391,0.971 -0.97,2.409 -0.97,2.409 -0.442,1.1 0.091,2.351 1.191,2.794 l 7.009,2.82 c 1.101,0.442 2.352,-0.091 2.794,-1.191 0,0 0.579,-1.438 0.969,-2.409 0.391,-0.971 2.72,-0.672 2.72,-0.672 l 1.558,-3.875 c 0.443,-1.1 -0.09,-2.351 -1.19,-2.794 l -5.613,-2.258 -5.615,-2.258 c -1.101,-0.443 -2.352,0.09 -2.795,1.19 l -1.558,3.875 c 0.002,0 1.89,1.398 1.5,2.369 z"
           id="path310"
           inkscape:connector-curvature="0"
           style="fill:#d8d8be;fill-opacity:1" />
        <path
           d="m 336.353,173.558 c 0.411,0.963 1.019,2.389 1.019,2.389 0.464,1.091 1.727,1.599 2.817,1.133 l 6.95,-2.962 c 1.091,-0.465 1.599,-1.727 1.134,-2.818 0,0 -0.608,-1.425 -1.018,-2.388 -0.411,-0.962 1.448,-2.398 1.448,-2.398 l -1.637,-3.842 c -0.465,-1.091 -1.727,-1.599 -2.819,-1.134 l -5.565,2.373 -5.567,2.373 c -1.091,0.465 -1.599,1.727 -1.133,2.818 l 1.638,3.842 c 0,-10e-4 2.323,-0.348 2.733,0.614 z"
           id="path312"
           inkscape:connector-curvature="0"
           style="fill:#d8d8be;fill-opacity:1" />
        <path
           d="m 357.115,158.846 c 0.971,0.391 2.409,0.969 2.409,0.969 1.101,0.443 2.351,-0.091 2.794,-1.191 l 2.819,-7.009 c 0.442,-1.101 -0.09,-2.351 -1.191,-2.794 0,0 -1.438,-0.578 -2.409,-0.969 -0.971,-0.391 -0.671,-2.72 -0.671,-2.72 l -3.875,-1.56 c -1.101,-0.442 -2.352,0.091 -2.795,1.191 l -2.257,5.613 -2.258,5.614 c -0.442,1.1 0.091,2.352 1.191,2.793 l 3.875,1.559 c 0,0.002 1.397,-1.886 2.368,-1.496 z"
           id="path314"
           inkscape:connector-curvature="0"
           style="fill:#d8d8be;fill-opacity:1" />
        <path
           d="m 361.394,133.763 c 0.962,-0.412 2.389,-1.019 2.389,-1.019 1.09,-0.466 1.598,-1.727 1.133,-2.818 l -2.963,-6.95 c -0.465,-1.092 -1.727,-1.599 -2.817,-1.134 0,0 -1.426,0.608 -2.389,1.019 -0.963,0.41 -2.398,-1.449 -2.398,-1.449 l -3.843,1.638 c -1.09,0.466 -1.598,1.727 -1.133,2.819 l 2.373,5.565 2.372,5.566 c 0.465,1.091 1.728,1.599 2.818,1.133 l 3.842,-1.638 c -0.001,0.001 -0.347,-2.322 0.616,-2.732 z"
           id="path316"
           inkscape:connector-curvature="0"
           style="fill:#d8d8be;fill-opacity:1" />
        <circle
           cx="328.97501"
           cy="141.14"
           r="5.3569999"
           id="circle318"
           d="m 334.33201,141.14 c 0,2.95859 -2.39841,5.357 -5.357,5.357 -2.95859,0 -5.357,-2.39841 -5.357,-5.357 0,-2.95859 2.39841,-5.357 5.357,-5.357 2.95859,0 5.357,2.39841 5.357,5.357 z"
           sodipodi:cx="328.97501"
           sodipodi:cy="141.14"
           sodipodi:rx="5.3569999"
           sodipodi:ry="5.3569999"
           style="fill:#d8d8be;fill-opacity:1" />
      </g>
    </g>
  </g>
</svg>
